<?xml version="1.0" encoding="utf-8"?>
<!-- Generator: Adobe Illustrator 14.0.0, SVG Export Plug-In . SVG Version: 6.00 Build 43363)  -->
<!DOCTYPE svg PUBLIC "-//W3C//DTD SVG 1.1//EN" "http://www.w3.org/Graphics/SVG/1.1/DTD/svg11.dtd">
<svg version="1.1" id="Layer_1" xmlns="http://www.w3.org/2000/svg" xmlns:xlink="http://www.w3.org/1999/xlink" x="0px" y="0px"
	 width="300px" height="300px" viewBox="0 0 300 300" enable-background="new 0 0 300 300" xml:space="preserve">
<path fill="#57A1FF" d="M229.271,14.083H70.73c-4.25,0-7.694,3.583-7.694,8.003v256.088c0,4.42,3.444,8.003,7.694,8.003h158.54
	c4.249,0,7.693-3.583,7.693-8.003V22.086C236.964,17.666,233.52,14.083,229.271,14.083z M119.5,32.058
	c0-0.721,2.529-1.305,5.648-1.305h49.703c3.119,0,5.648,0.584,5.648,1.305v2.869c0,0.721-2.529,1.305-5.648,1.305h-49.703
	c-3.119,0-5.648-0.584-5.648-1.305V32.058z M150,272.067c-6.231,0-11.283-5.052-11.283-11.283c0-6.232,5.052-11.284,11.283-11.284
	c6.232,0,11.283,5.052,11.283,11.284C161.283,267.016,156.232,272.067,150,272.067z M213.832,225.366
	c0,5.369-3.836,9.721-8.568,9.721H94.735c-4.731,0-8.567-4.352-8.567-9.721V63.03c0-5.368,3.836-9.72,8.567-9.72h110.528
	c4.732,0,8.568,4.352,8.568,9.72V225.366z"/>
<path display="none" opacity="0.2" fill="#FFFFFF" d="M229.271,14.083H70.73c-4.25,0-7.694,3.583-7.694,8.003V193.5
	c3.772-13.612,11.152-32.63,23.132-51.792V63.03c0-5.368,3.836-9.72,8.567-9.72h110.528c4.732,0,8.568,4.352,8.568,9.72V67
	c7.86-0.04,14.761-0.123,23.132,1.5V22.086C236.964,17.666,233.52,14.083,229.271,14.083z M180.5,34.927
	c0,0.721-2.529,1.305-5.648,1.305h-49.703c-3.119,0-5.648-0.584-5.648-1.305v-2.869c0-0.721,2.529-1.305,5.648-1.305h49.703
	c3.119,0,5.648,0.584,5.648,1.305V34.927z"/>
<path display="none" opacity="0.1" fill="#57A1FF" d="M229.271,14.083H70.73c-4.25,0-7.694,3.583-7.694,8.003V193.5
	C74.077,153.658,116,67.5,213.832,67c7.86-0.04,14.761-0.123,23.132,1.5V22.086C236.964,17.666,233.52,14.083,229.271,14.083z"/>
</svg>
